<?xml version="1.0" encoding="utf-8"?>
<!-- Generator: Adobe Illustrator 19.0.0, SVG Export Plug-In . SVG Version: 6.00 Build 0)  -->
<svg version="1.1" id="Capa_1" xmlns="http://www.w3.org/2000/svg" xmlns:xlink="http://www.w3.org/1999/xlink" x="0px" y="0px"
	 viewBox="0 0 573.3 152.2" style="enable-background:new 0 0 573.3 152.2;" xml:space="preserve">
<style type="text/css">
	.st0{fill:#FFFFFF;}
</style>
<g id="XMLID_17_">
	<path id="XMLID_81_" class="st0" d="M38.6,69V29.3H24.7v-9.9h37.8v9.9H48.5V69H38.6z M26.7,33.3v-2h9.9v2H26.7z M40.6,73v-2h9.9
		V31.3h13.9v-9.9h2v11.9H52.5V73H40.6z"/>
	<path id="XMLID_85_" class="st0" d="M87.4,59.1V29.3h9.9v29.8H87.4z M89.4,63.1v-2h6v2H89.4z M97.3,29.3v-9.9h29.8v9.9H97.3z
		 M97.3,69v-9.9h29.8V69H97.3z M99.3,73v-2h29.8v-9.9h9.9V31.3h2v31.8h-9.9V73H99.3z M99.3,57.1V31.3h25.8v2h-23.9v23.8H99.3z
		 M127.2,59.1V29.3h9.9v29.8H127.2z M129.1,27.3v-6h2v6H129.1z"/>
	<path id="XMLID_94_" class="st0" d="M162.1,59.1V29.3h9.9v9.9h19.9v9.9H172v9.9H162.1z M164.1,63.1v-2h6v2H164.1z M172,29.3v-9.9
		h29.8v9.9H172z M172,69v-9.9h29.8V69H172z M174,37.2v-6h29.8v-9.9h2v11.9H176v4H174z M174,57.1v-6h19.9v-9.9h2v11.9H176v4H174z
		 M174,73v-2h29.8v-9.9h2V73H174z"/>
	<path id="XMLID_102_" class="st0" d="M226.8,69V19.4h9.9v19.9h9.9v9.9h-9.9V69H226.8z M228.8,73v-2h9.9V51.1h6v2h-4V73H228.8z
		 M238.7,37.2V21.3h2v15.9H238.7z M246.7,39.2v-9.9h9.9v9.9H246.7z M246.7,59.1v-9.9h9.9v9.9H246.7z M248.7,47.2v-6h9.9v-9.9h9.9
		v-9.9h2v11.9h-9.9v9.9h-9.9v4H248.7z M248.7,63.1v-2h6v2H248.7z M256.6,29.3v-9.9h9.9v9.9H256.6z M256.6,69v-9.9h9.9V69H256.6z
		 M258.6,57.1v-6h2v6H258.6z M258.6,73v-2h9.9v-9.9h2V73H258.6z"/>
	<path id="XMLID_114_" class="st0" d="M291.5,59.1V29.3h9.9v29.8H291.5z M293.5,63.1v-2h6v2H293.5z M301.5,29.3v-9.9h29.8v9.9H301.5
		z M301.5,69v-9.9h29.8V69H301.5z M303.5,73v-2h29.8v-9.9h9.9V31.3h2v31.8h-9.9V73H303.5z M303.5,57.1V31.3h25.8v2h-23.9v23.8H303.5
		z M331.3,59.1V29.3h9.9v29.8H331.3z M333.3,27.3v-6h2v6H333.3z"/>
	<path id="XMLID_123_" class="st0" d="M366.2,69V19.4h9.9v9.9h9.9v9.9h-9.9V69H366.2z M368.2,73v-2h9.9V41.2h6v2h-4V73H368.2z
		 M378.1,27.3v-6h2v6H378.1z M386.1,49.2v-9.9h9.9v9.9H386.1z M388.1,37.2v-6h2v6H388.1z M388.1,53.1v-2h9.9v-9.9h6v2h-4v9.9H388.1z
		 M406,69V39.2H396v-9.9h9.9v-9.9h9.9V69H406z M407.9,73v-2h9.9V21.3h2V73H407.9z"/>
	<path id="XMLID_132_" class="st0" d="M440.9,39.2v-9.9h9.9v9.9H440.9z M440.9,69v-9.9h29.8V69H440.9z M442.9,43.2v-2h6v2H442.9z
		 M442.9,73v-2h29.8v-9.9h9.9v-9.9h2v11.9h-9.9V73H442.9z M450.8,29.3v-9.9h29.8v9.9H450.8z M450.8,49.2v-9.9h19.9v9.9H450.8z
		 M452.8,37.2v-6h29.8v-9.9h2v11.9h-29.8v4H452.8z M452.8,53.1v-2h15.9v2H452.8z M470.7,59.1v-9.9h9.9v9.9H470.7z M472.7,47.2v-6h2
		v6H472.7z"/>
	<path id="XMLID_143_" class="st0" d="M519.5,69V29.3h-13.9v-9.9h37.8v9.9h-13.9V69H519.5z M507.6,33.3v-2h9.9v2H507.6z M521.5,73
		v-2h9.9V31.3h13.9v-9.9h2v11.9h-13.9V73H521.5z"/>
	<path id="XMLID_147_" class="st0" d="M171,135.1c-0.6,0-1.2-0.5-1.2-1.2V130h3.5c0.7,0,0.7,0.6,0.7,0.6v4.4H171z"/>
	<path id="XMLID_149_" class="st0" d="M197.2,104.8v-4.7c0-1.3-1-2.3-2.2-2.3s-2.2,1-2.2,2.3v3.9c0,2.4,1.8,5.4,1.8,5.4l5,9.4
		c2,3.7,1.8,6.4,1.8,6.4v5.1c0,2.8-2.3,5.1-5.2,5.1h-2.6c-2.8-0.1-5-2.4-5-5.1v-4.2c0-1.3,0.6-2,1.2-2.3c0.3-0.1,2-0.9,3.1-1.3v7
		c0,1.2,1,2.2,2.2,2.2s2.2-1,2.2-2.3V125c0-2.4-1.8-5.5-1.8-5.5l-5-9.3c-2-3.7-1.8-6.4-1.8-6.4v-4.2c0-2.8,2.3-5.4,5.2-5.4h2.6
		c2.8,0.1,5,2.6,5,5.4v1.6c0,1.3-0.6,2-1.2,2.3C199.9,103.6,198.3,104.3,197.2,104.8z"/>
	<path id="XMLID_151_" class="st0" d="M242.3,130.3c0,2.8-2.2,5-5,5.1h-2.5c-2.9,0-5.2-2.3-5.2-5.1v-31c0-2.8,2.3-5.1,5.2-5.1h2.5
		c2.8,0.1,5,2.4,5,5.1v6.2c0,1.3-0.6,2-1.1,2.2l-3,1.4V100c0-1.2-1-2.2-2.3-2.2c-1.2,0-2.2,1-2.2,2.2v29.5c0,1.3,1,2.3,2.2,2.3
		c1.3,0,2.3-1,2.3-2.3v-5.4c0-1.3,0.6-2,1.1-2.3c0.3-0.2,2-0.9,3-1.3V130.3z"/>
	<path id="XMLID_153_" class="st0" d="M281.9,94.6c1.3,0,1.7,0.9,1.7,1.6v38.8h-4.2v-17.6c-0.1-0.5-0.5-0.9-1-0.9h-4.5v18.5h-4.2
		V96.2c0-0.7,0.4-1.6,1.7-1.6h2.5V111c0,1.2,0.5,1.4,1.4,1.4h4V94.6H281.9z"/>
	<path id="XMLID_155_" class="st0" d="M319.1,94.2c2.8,0.1,5,2.4,5,5.1v31c-0.1,2.8-2.3,5-5,5.1h-3.2c-2.8,0-5.1-2.3-5.2-5.1v-31
		c0-2.8,2.3-5.1,5.2-5.1H319.1z M317.7,131.8c1.2,0,2.2-1,2.2-2.3v-29.5c0-1.3-1-2.3-2.2-2.3h-0.6c-1.2,0.1-2.2,1-2.2,2.3v29.5
		c0,1.2,1,2.2,2.2,2.3H317.7z"/>
	<path id="XMLID_158_" class="st0" d="M359.9,94.2c2.8,0.1,5,2.4,5,5.1v31c-0.1,2.8-2.3,5-5,5.1h-3.2c-2.8,0-5.1-2.3-5.2-5.1v-31
		c0-2.8,2.3-5.1,5.2-5.1H359.9z M358.5,131.8c1.2,0,2.2-1,2.2-2.3v-29.5c0-1.3-1-2.3-2.2-2.3h-0.6c-1.2,0.1-2.2,1-2.2,2.3v29.5
		c0,1.2,1,2.2,2.2,2.3H358.5z"/>
	<path id="XMLID_161_" class="st0" d="M407.4,131c-0.5,1-1.2,2.7-1.3,3c-0.3,0.5-0.9,1.1-2.3,1.1h-9.9V94.6h2.9
		c0.7,0.1,1.3,0.6,1.3,1.3V131H407.4z"/>
</g>
</svg>
